<svg xmlns="http://www.w3.org/2000/svg" viewBox="0 0 512 512" role="img" aria-label="Shri Hit Chaurasi PWA icon">
  <defs>
    <linearGradient id="bg" x1="64" y1="48" x2="448" y2="464" gradientUnits="userSpaceOnUse">
      <stop offset="0" stop-color="#FFD189"/>
      <stop offset="0.45" stop-color="#E07A10"/>
      <stop offset="1" stop-color="#7B2D00"/>
    </linearGradient>
    <linearGradient id="pageLeft" x1="126" y1="164" x2="238" y2="356" gradientUnits="userSpaceOnUse">
      <stop offset="0" stop-color="#FFF8E8"/>
      <stop offset="1" stop-color="#F3DFC2"/>
    </linearGradient>
    <linearGradient id="pageRight" x1="274" y1="164" x2="386" y2="356" gradientUnits="userSpaceOnUse">
      <stop offset="0" stop-color="#FFF9EC"/>
      <stop offset="1" stop-color="#F2DEC1"/>
    </linearGradient>
    <linearGradient id="spine" x1="256" y1="150" x2="256" y2="364" gradientUnits="userSpaceOnUse">
      <stop offset="0" stop-color="#6F2200"/>
      <stop offset="1" stop-color="#4A1500"/>
    </linearGradient>
    <filter id="shadow" x="-20%" y="-20%" width="140%" height="140%">
      <feDropShadow dx="0" dy="14" stdDeviation="16" flood-color="#4E1A00" flood-opacity="0.28"/>
    </filter>
  </defs>

  <rect x="24" y="24" width="464" height="464" rx="104" fill="url(#bg)"/>
  <rect x="36" y="36" width="440" height="440" rx="92" fill="none" stroke="rgba(255,248,232,0.22)" stroke-width="6"/>
  <circle cx="256" cy="150" r="122" fill="rgba(255,247,228,0.14)"/>

  <g filter="url(#shadow)">
    <path d="M256 136C226 132 157 140 112 160V356C154 338 224 332 256 336Z" fill="url(#pageLeft)"/>
    <path d="M256 136C286 132 355 140 400 160V356C358 338 288 332 256 336Z" fill="url(#pageRight)"/>
    <path d="M256 136C229 132 160 140 116 158" fill="none" stroke="#8B3A06" stroke-width="10" stroke-linecap="round"/>
    <path d="M256 136C283 132 352 140 396 158" fill="none" stroke="#8B3A06" stroke-width="10" stroke-linecap="round"/>
    <path d="M116 356C160 338 229 332 256 336" fill="none" stroke="#8B3A06" stroke-width="10" stroke-linecap="round"/>
    <path d="M396 356C352 338 283 332 256 336" fill="none" stroke="#8B3A06" stroke-width="10" stroke-linecap="round"/>
    <rect x="244" y="132" width="24" height="220" rx="10" fill="url(#spine)"/>
  </g>

  <path d="M256 120L287 120L287 184L271 170L256 182L241 170L225 184L225 120Z" fill="#7A1E00" opacity="0.96"/>
  <path d="M136 218H226" stroke="#C47E2B" stroke-width="10" stroke-linecap="round" opacity="0.72"/>
  <path d="M136 252H226" stroke="#C47E2B" stroke-width="10" stroke-linecap="round" opacity="0.5"/>
  <path d="M136 286H214" stroke="#C47E2B" stroke-width="8" stroke-linecap="round" opacity="0.38"/>
  <path d="M286 218H376" stroke="#C47E2B" stroke-width="10" stroke-linecap="round" opacity="0.72"/>
  <path d="M286 252H376" stroke="#C47E2B" stroke-width="10" stroke-linecap="round" opacity="0.5"/>
  <path d="M298 286H376" stroke="#C47E2B" stroke-width="8" stroke-linecap="round" opacity="0.38"/>

  <path d="M176 178C193 166 214 160 236 160" fill="none" stroke="#FDF4DF" stroke-width="6" stroke-linecap="round" opacity="0.72"/>
  <path d="M336 178C319 166 298 160 276 160" fill="none" stroke="#FDF4DF" stroke-width="6" stroke-linecap="round" opacity="0.72"/>
</svg>
